<?xml version="1.0" encoding="utf-8"?>
<!-- Generator: Adobe Illustrator 23.0.6, SVG Export Plug-In . SVG Version: 6.00 Build 0)  -->
<svg id="graphSVG" version="1.1" id="Layer_1" xmlns="http://www.w3.org/2000/svg" xmlns:xlink="http://www.w3.org/1999/xlink" x="0px" y="0px"
	 viewBox="0 0 400 400" style="enable-background:new 0 0 400 400;" xml:space="preserve">
<style type="text/css">
	.st0{fill:none;stroke:#000000;}
	.st1{fill:none;stroke:#000000;stroke-opacity:0.1;}
	.st2{font-family:'ArialMT';}
	.st3{font-size:12px;}
	.st4{fill:none;stroke:#FF9DA7;stroke-width:1.5;stroke-miterlimit:1;}
	.st5{fill:none;stroke:#9C755F;stroke-width:1.5;stroke-miterlimit:1;}
	.st6{fill:none;stroke:#BAB0AB;stroke-width:1.5;stroke-miterlimit:1;}
	.st7{fill:none;stroke:#F28E2C;stroke-width:1.5;stroke-miterlimit:1;}
	.st8{fill:none;stroke:#4E79A7;stroke-width:1.5;stroke-miterlimit:1;}
	.st9{fill:none;stroke:#AF7AA1;stroke-width:1.5;stroke-miterlimit:1;}
	.st10{fill:none;stroke:#EDC949;stroke-width:1.5;stroke-miterlimit:1;}
	.st11{fill:none;stroke:#E15759;stroke-width:1.5;stroke-miterlimit:1;}
	.st12{fill:none;stroke:#59A14F;stroke-width:1.5;stroke-miterlimit:1;}
	.st13{fill:none;stroke:#76B7B2;stroke-width:1.5;stroke-miterlimit:1;}
</style>
<g transform="translate(40,0)">
	<g transform="translate(0,361.51646985705406)">
		<line class="st0" x1="0" y1="0" x2="-6" y2="0"/>
		<line class="st1" x1="0" y1="0" x2="340" y2="0"/>
		<text transform="matrix(1 0 0 1 -22.3477 3.84)" class="st2 st3">20</text>
	</g>
	<g transform="translate(0,318.011187072716)">
		<line class="st0" x1="0" y1="0" x2="-6" y2="0"/>
		<line class="st1" x1="0" y1="0" x2="340" y2="0"/>
		<text transform="matrix(1 0 0 1 -22.3477 3.84)" class="st2 st3">40</text>
	</g>
	<g transform="translate(0,274.5059042883779)">
		<line class="st0" x1="0" y1="0" x2="-6" y2="0"/>
		<line class="st1" x1="0" y1="0" x2="340" y2="0"/>
		<text transform="matrix(1 0 0 1 -22.3477 3.8401)" class="st2 st3">60</text>
	</g>
	<g transform="translate(0,231.0006215040398)">
		<line class="st0" x1="0" y1="0" x2="-6" y2="0"/>
		<line class="st1" x1="0" y1="0" x2="340" y2="0"/>
		<text transform="matrix(1 0 0 1 -22.3477 3.84)" class="st2 st3">80</text>
	</g>
	<g transform="translate(0,187.49533871970166)">
		<line class="st0" x1="0" y1="0" x2="-6" y2="0"/>
		<line class="st1" x1="0" y1="0" x2="340" y2="0"/>
		<text transform="matrix(1 0 0 1 -29.0215 3.84)" class="st2 st3">100</text>
	</g>
	<g transform="translate(0,143.99005593536359)">
		<line class="st0" x1="0" y1="0" x2="-6" y2="0"/>
		<line class="st1" x1="0" y1="0" x2="340" y2="0"/>
		<text transform="matrix(1 0 0 1 -29.0215 3.84)" class="st2 st3">120</text>
	</g>
	<g transform="translate(0,100.4847731510255)">
		<line class="st0" x1="0" y1="0" x2="-6" y2="0"/>
		<line class="st1" x1="0" y1="0" x2="340" y2="0"/>
		<text transform="matrix(1 0 0 1 -29.0215 3.8401)" class="st2 st3">140</text>
	</g>
	<g transform="translate(0,56.97949036668737)">
		<line class="st0" x1="0" y1="0" x2="-6" y2="0"/>
		<line class="st1" x1="0" y1="0" x2="340" y2="0"/>
		<text transform="matrix(1 0 0 1 -29.0215 3.84)" class="st2 st3">160</text>
	</g>
	<text transform="matrix(1 0 0 1 -40 8)" class="st2 st3">↑ Networth (Billions)</text>
</g>
<g transform="translate(93.68421052631578,0)">
	<line class="st0" x1="0" y1="370" x2="0" y2="376"/>
	<text transform="matrix(1 0 0 1 -14.0145 387.5205)" class="st2 st3">2005</text>
</g>
<g transform="translate(183.1578947368421,0)">
	<line class="st0" x1="0" y1="370" x2="0" y2="376"/>
	<text transform="matrix(1 0 0 1 -14.0144 387.52)" class="st2 st3">2010</text>
</g>
<g transform="translate(272.63157894736844,0)">
	<line class="st0" x1="0" y1="370" x2="0" y2="376"/>
	<text transform="matrix(1 0 0 1 -15.0146 387.52)" class="st2 st3">2015</text>
</g>
<g transform="translate(362.10526315789474,0)">
	<line class="st0" x1="0" y1="370" x2="0" y2="376"/>
	<text transform="matrix(1 0 0 1 -15.0147 387.52)" class="st2 st3">2020</text>
</g>
<g>
	<path class="st4" d="M40,274.5l17.9,15.7l17.9,13.5l17.9,0.2l17.9-12l17.9-8.7l17.9-4.4l17.9,39.2l17.9-28.3l17.9-6.5l17.9-10.9
		l17.9-13.1l17.9-19.6l17.9-7l17.9,9.1l17.9-23.9l17.9-8.7l17.9-14.1l17.9-3.3l17.9-56.6"/>
	<path class="st5" d="M40,349.3l17.9-20.4l17.9-17.2l17.9-2.4l17.9,4.4l17.9-21.8l35.8,32.6l17.9-21.8l17.9-6.5l17.9,13.1l17.9-20.7
		l17.9-10.2l17.9-31.5l17.9,25.9l17.9-32.2l17.9-18.3l17.9,3.3l17.9,32.6l17.9-62"/>
	<path class="st6" d="M40,302.8l17.9,51.1L93.7,365l71.6-8.9l17.9-12l17.9-25l17.9,7.6l17.9-15.2l17.9-10.9l17.9-13.7l17.9,23.3
		l17.9-18.7l17.9-13.7l17.9-8.7l17.9,7.6l17.9-74"/>
	<path class="st7" d="M40,361.5l53.7,3.7l268.4-77.9"/>
	<path class="st8" d="M40,344.1l17.9,6.1l17.9,9.1h17.9l17.9-2.2"/>
	<path class="st8" d="M40,361.5l35.8-3.3l17.9-4.8l17.9,8"/>
	<path class="st9" d="M40,370l71.6-7.6"/>
	<path class="st10" d="M40,361.5l17.9-14.8"/>
	<path class="st10" d="M40,362.8"/>
	<path class="st4" d="M40,363.5"/>
	<path class="st11" d="M57.9,360.4l17.9,1.1"/>
	<path class="st4" d="M57.9,360.4l17.9,1.1"/>
	<path class="st7" d="M57.9,359.8l17.9,1.7"/>
	<path class="st11" d="M57.9,360l17.9,1.5"/>
	<path class="st11" d="M57.9,360.4l17.9,1.1"/>
	<path class="st12" d="M75.8,355l17.9,9.8l71.6-6.5l17.9-4.4l35.8-4.1"/>
	<path class="st5" d="M93.7,353.3l17.9-13.5l17.9-41.3l17.9-23.9l17.9,54.4l107.4-91.6l17.9,58.9l17.9-9.8l17.9-27.4l17.9,6.7"/>
	<path class="st5" d="M93.7,350.6l17.9,3.3l17.9-18.5l17.9-28.3l17.9,55.9l17.9-20.4l17.9-5.2"/>
	<path class="st5" d="M93.7,355l17.9-10.9l17.9-10.9l17.9,4.4l17.9,19.6"/>
	<path class="st10" d="M111.6,358.3l17.9-9.8l53.7-3.3l17.9-29.4h17.9l17.9,26.1l89.5-93.5l17.9-8.7"/>
	<path class="st7" d="M111.6,364.1l17.9-9.1l89.5-5.4l17.9-12"/>
	<path class="st13" d="M129.5,352.8l35.8,12.4l17.9-14.6l17.9-13.1l17.9-14.1l17.9-42.4l17.9-15.2l17.9-1.1l17.9-5.4l17.9-9.4
		l17.9,2.8l17.9,15.9l17.9,16.5"/>
	<path class="st12" d="M129.5,347.4l125.3-25"/>
	<path class="st12" d="M129.5,357.2"/>
	<path class="st5" d="M147.4,311.5l17.9,51.1l17.9-20.7l17.9,4.4L380,221.2"/>
	<path class="st4" d="M147.4,270.2"/>
	<path class="st12" d="M147.4,313.7"/>
	<path class="st4" d="M147.4,339.8"/>
	<path class="st6" d="M147.4,344.1"/>
	<path class="st13" d="M147.4,346.3"/>
	<path class="st9" d="M165.3,364.1"/>
	<path class="st6" d="M183.2,288.6l17.9-44.6l17.9,10.9l17.9-8.7l17.9,2.2"/>
	<path class="st10" d="M183.2,346.3l17.9-6.5h17.9"/>
	<path class="st11" d="M201.1,347.4l53.7-22.2"/>
	<path class="st10" d="M218.9,348.5"/>
	<path class="st8" d="M236.8,331.1l17.9-13.1l17.9-6.3l17.9,7.2l17.9-18.9l17.9-25.5"/>
	<path class="st13" d="M236.8,331.1l17.9-13.1l17.9-6.3l17.9,7.2l17.9-18.9l17.9-25.5"/>
	<path class="st13" d="M236.8,339.8"/>
	<path class="st8" d="M254.7,329.5l17.9-12.8l89.5-30.5"/>
	<path class="st7" d="M272.6,314.3"/>
	<path class="st11" d="M272.6,317.8"/>
	<path class="st6" d="M290.5,306.7l17.9-60l17.9-85.3l17.9-41.3l17.9,39.2L380,20"/>
	<path class="st12" d="M290.5,308l17.9-24.8l17.9-32.6l17.9,18.9l17.9,16.5l17.9-92"/>
	<path class="st9" d="M290.5,318l17.9-16.3l35.8-17.4"/>
	<path class="st8" d="M344.2,294.5L380,206"/>
	<path class="st9" d="M362.1,239.7l17.9-161"/>
	<path class="st7" d="M362.1,286.7"/>
	<path class="st9" d="M380,76.6"/>
	<path class="st13" d="M380,211.4"/>
</g>
<g transform="translate(195, 293)">
</g>
</svg>
